solid OpenSCAD_Model
  facet normal 0 1 0
    outer loop
      vertex 107.3 88.9 10
      vertex 64.575 88.9 3
      vertex 64.575 88.9 10
    endloop
  endfacet
  facet normal 0 1 0
    outer loop
      vertex 64.575 88.9 3
      vertex 107.3 88.9 0
      vertex 52.575 88.9 3
    endloop
  endfacet
  facet normal 0 1 -0
    outer loop
      vertex 107.3 88.9 0
      vertex 64.575 88.9 3
      vertex 107.3 88.9 10
    endloop
  endfacet
  facet normal 0 1 -0
    outer loop
      vertex 52.575 88.9 3
      vertex 9.84999 88.9 10
      vertex 52.575 88.9 10
    endloop
  endfacet
  facet normal 0 1 0
    outer loop
      vertex 52.575 88.9 3
      vertex 9.84999 88.9 0
      vertex 9.84999 88.9 10
    endloop
  endfacet
  facet normal 0 1 0
    outer loop
      vertex 9.84999 88.9 0
      vertex 52.575 88.9 3
      vertex 107.3 88.9 0
    endloop
  endfacet
  facet normal 0.707106 -0.707108 0
    outer loop
      vertex 107.3 6.25 0
      vertex 110.9 9.84999 10
      vertex 107.3 6.25 10
    endloop
  endfacet
  facet normal 0.707106 -0.707108 0
    outer loop
      vertex 110.9 9.84999 10
      vertex 107.3 6.25 0
      vertex 110.9 9.84999 0
    endloop
  endfacet
  facet normal -1 0 0
    outer loop
      vertex 6.25 9.84999 0
      vertex 6.25 85.3 10
      vertex 6.25 85.3 0
    endloop
  endfacet
  facet normal -1 -0 0
    outer loop
      vertex 6.25 85.3 10
      vertex 6.25 9.84999 0
      vertex 6.25 9.84999 10
    endloop
  endfacet
  facet normal 0 0 -1
    outer loop
      vertex 107.3 6.25 0
      vertex 110.9 85.3 0
      vertex 110.9 9.84999 0
    endloop
  endfacet
  facet normal 0 0 -1
    outer loop
      vertex 107.3 6.25 0
      vertex 107.3 88.9 0
      vertex 110.9 85.3 0
    endloop
  endfacet
  facet normal 0 0 -1
    outer loop
      vertex 9.84999 6.25 0
      vertex 107.3 88.9 0
      vertex 107.3 6.25 0
    endloop
  endfacet
  facet normal 0 0 -1
    outer loop
      vertex 9.84999 6.25 0
      vertex 9.84999 88.9 0
      vertex 107.3 88.9 0
    endloop
  endfacet
  facet normal 0 0 -1
    outer loop
      vertex 6.25 9.84999 0
      vertex 9.84999 88.9 0
      vertex 9.84999 6.25 0
    endloop
  endfacet
  facet normal 0 0 -1
    outer loop
      vertex 9.84999 88.9 0
      vertex 6.25 9.84999 0
      vertex 6.25 85.3 0
    endloop
  endfacet
  facet normal -0.707108 0.707106 0
    outer loop
      vertex 6.25 85.3 0
      vertex 9.84999 88.9 10
      vertex 9.84999 88.9 0
    endloop
  endfacet
  facet normal -0.707108 0.707106 0
    outer loop
      vertex 9.84999 88.9 10
      vertex 6.25 85.3 0
      vertex 6.25 85.3 10
    endloop
  endfacet
  facet normal 0.707107 0.707107 0
    outer loop
      vertex 110.9 85.3 10
      vertex 107.3 88.9 0
      vertex 107.3 88.9 10
    endloop
  endfacet
  facet normal 0.707107 0.707107 0
    outer loop
      vertex 107.3 88.9 0
      vertex 110.9 85.3 10
      vertex 110.9 85.3 0
    endloop
  endfacet
  facet normal -0 0 1
    outer loop
      vertex 9.84999 88.9 10
      vertex 52.575 86.9 10
      vertex 52.575 88.9 10
    endloop
  endfacet
  facet normal 0 0 1
    outer loop
      vertex 9.84999 88.9 10
      vertex 9.84999 86.9 10
      vertex 52.575 86.9 10
    endloop
  endfacet
  facet normal 0 0 1
    outer loop
      vertex 9.84999 88.9 10
      vertex 8.25 85.3 10
      vertex 9.84999 86.9 10
    endloop
  endfacet
  facet normal 0 0 1
    outer loop
      vertex 8.25 85.3 10
      vertex 6.25 85.3 10
      vertex 8.25 9.84999 10
    endloop
  endfacet
  facet normal 0 0 1
    outer loop
      vertex 6.25 85.3 10
      vertex 8.25 85.3 10
      vertex 9.84999 88.9 10
    endloop
  endfacet
  facet normal 0 0 1
    outer loop
      vertex 110.9 85.3 10
      vertex 108.9 85.3 10
      vertex 110.9 9.84999 10
    endloop
  endfacet
  facet normal 0 0 1
    outer loop
      vertex 107.3 88.9 10
      vertex 108.9 85.3 10
      vertex 110.9 85.3 10
    endloop
  endfacet
  facet normal 0 0 1
    outer loop
      vertex 107.3 88.9 10
      vertex 107.3 86.9 10
      vertex 108.9 85.3 10
    endloop
  endfacet
  facet normal -0 0 1
    outer loop
      vertex 64.575 88.9 10
      vertex 107.3 86.9 10
      vertex 107.3 88.9 10
    endloop
  endfacet
  facet normal 0 0 1
    outer loop
      vertex 107.3 86.9 10
      vertex 64.575 88.9 10
      vertex 64.575 86.9 10
    endloop
  endfacet
  facet normal 0 0 1
    outer loop
      vertex 108.9 9.84999 10
      vertex 110.9 9.84999 10
      vertex 108.9 85.3 10
    endloop
  endfacet
  facet normal 0 0 1
    outer loop
      vertex 107.3 8.25 10
      vertex 110.9 9.84999 10
      vertex 108.9 9.84999 10
    endloop
  endfacet
  facet normal -0 0 1
    outer loop
      vertex 107.3 8.25 10
      vertex 107.3 6.25 10
      vertex 110.9 9.84999 10
    endloop
  endfacet
  facet normal -0 0 1
    outer loop
      vertex 9.84999 8.25 10
      vertex 107.3 6.25 10
      vertex 107.3 8.25 10
    endloop
  endfacet
  facet normal 0 0 1
    outer loop
      vertex 9.84999 8.25 10
      vertex 9.84999 6.25 10
      vertex 107.3 6.25 10
    endloop
  endfacet
  facet normal 0 0 1
    outer loop
      vertex 8.25 9.84999 10
      vertex 9.84999 6.25 10
      vertex 9.84999 8.25 10
    endloop
  endfacet
  facet normal 0 0 1
    outer loop
      vertex 8.25 9.84999 10
      vertex 6.25 9.84999 10
      vertex 9.84999 6.25 10
    endloop
  endfacet
  facet normal 0 0 1
    outer loop
      vertex 6.25 9.84999 10
      vertex 8.25 9.84999 10
      vertex 6.25 85.3 10
    endloop
  endfacet
  facet normal -0.707107 -0.707107 0
    outer loop
      vertex 9.84999 6.25 0
      vertex 6.25 9.84999 10
      vertex 6.25 9.84999 0
    endloop
  endfacet
  facet normal -0.707107 -0.707107 0
    outer loop
      vertex 6.25 9.84999 10
      vertex 9.84999 6.25 0
      vertex 9.84999 6.25 10
    endloop
  endfacet
  facet normal 0 -1 0
    outer loop
      vertex 9.84999 6.25 0
      vertex 107.3 6.25 10
      vertex 9.84999 6.25 10
    endloop
  endfacet
  facet normal 0 -1 -0
    outer loop
      vertex 107.3 6.25 10
      vertex 9.84999 6.25 0
      vertex 107.3 6.25 0
    endloop
  endfacet
  facet normal 1 -0 0
    outer loop
      vertex 110.9 9.84999 10
      vertex 110.9 85.3 0
      vertex 110.9 85.3 10
    endloop
  endfacet
  facet normal 1 0 0
    outer loop
      vertex 110.9 85.3 0
      vertex 110.9 9.84999 10
      vertex 110.9 9.84999 0
    endloop
  endfacet
  facet normal 0 -1 0
    outer loop
      vertex 9.84999 86.9 3
      vertex 52.575 86.9 10
      vertex 9.84999 86.9 10
    endloop
  endfacet
  facet normal 0 -1 -0
    outer loop
      vertex 52.575 86.9 10
      vertex 9.84999 86.9 3
      vertex 52.575 86.9 3
    endloop
  endfacet
  facet normal 0 -1 0
    outer loop
      vertex 64.575 86.9 3
      vertex 107.3 86.9 10
      vertex 64.575 86.9 10
    endloop
  endfacet
  facet normal 0 -1 -0
    outer loop
      vertex 107.3 86.9 10
      vertex 64.575 86.9 3
      vertex 107.3 86.9 3
    endloop
  endfacet
  facet normal -0.707105 0.707109 0
    outer loop
      vertex 108.9 9.84999 3
      vertex 107.3 8.25 10
      vertex 108.9 9.84999 10
    endloop
  endfacet
  facet normal -0.707105 0.707109 0
    outer loop
      vertex 107.3 8.25 10
      vertex 108.9 9.84999 3
      vertex 107.3 8.25 3
    endloop
  endfacet
  facet normal 1 -0 0
    outer loop
      vertex 8.25 9.84999 10
      vertex 8.25 85.3 3
      vertex 8.25 85.3 10
    endloop
  endfacet
  facet normal 1 0 0
    outer loop
      vertex 8.25 85.3 3
      vertex 8.25 9.84999 10
      vertex 8.25 9.84999 3
    endloop
  endfacet
  facet normal 0.707107 0.707107 0
    outer loop
      vertex 9.84999 8.25 10
      vertex 8.25 9.84999 3
      vertex 8.25 9.84999 10
    endloop
  endfacet
  facet normal 0.707107 0.707107 0
    outer loop
      vertex 8.25 9.84999 3
      vertex 9.84999 8.25 10
      vertex 9.84999 8.25 3
    endloop
  endfacet
  facet normal 0 0 1
    outer loop
      vertex 64.575 88.9 3
      vertex 52.575 88.9 3
      vertex 64.575 86.9 3
    endloop
  endfacet
  facet normal 0 0 1
    outer loop
      vertex 70.575 84.9 3
      vertex 108.9 85.3 3
      vertex 107.3 86.9 3
    endloop
  endfacet
  facet normal 0 0 1
    outer loop
      vertex 108.9 85.3 3
      vertex 70.575 46.4 3
      vertex 108.9 9.84999 3
    endloop
  endfacet
  facet normal 0 0 1
    outer loop
      vertex 108.9 85.3 3
      vertex 70.575 84.9 3
      vertex 70.575 46.4 3
    endloop
  endfacet
  facet normal -0 0 1
    outer loop
      vertex 64.575 86.9 3
      vertex 70.575 84.9 3
      vertex 107.3 86.9 3
    endloop
  endfacet
  facet normal 0 0 1
    outer loop
      vertex 64.575 86.9 3
      vertex 66.075 81.9 3
      vertex 66.075 84.9 3
    endloop
  endfacet
  facet normal 0 0 1
    outer loop
      vertex 66.075 81.9 3
      vertex 51.075 81.9 3
      vertex 66.075 50.9 3
    endloop
  endfacet
  facet normal 0 0 1
    outer loop
      vertex 70.575 84.9 3
      vertex 64.575 86.9 3
      vertex 66.075 84.9 3
    endloop
  endfacet
  facet normal 0 0 1
    outer loop
      vertex 66.075 81.9 3
      vertex 64.575 86.9 3
      vertex 51.075 81.9 3
    endloop
  endfacet
  facet normal 0 0 1
    outer loop
      vertex 52.575 86.9 3
      vertex 64.575 86.9 3
      vertex 52.575 88.9 3
    endloop
  endfacet
  facet normal 0 0 1
    outer loop
      vertex 51.075 81.9 3
      vertex 64.575 86.9 3
      vertex 52.575 86.9 3
    endloop
  endfacet
  facet normal 0 0 1
    outer loop
      vertex 51.075 81.9 3
      vertex 52.575 86.9 3
      vertex 51.075 84.9 3
    endloop
  endfacet
  facet normal 0 0 1
    outer loop
      vertex 51.075 50.9 3
      vertex 66.075 50.9 3
      vertex 51.075 81.9 3
    endloop
  endfacet
  facet normal 0 0 1
    outer loop
      vertex 66.075 50.9 3
      vertex 51.075 50.9 3
      vertex 66.075 47.9 3
    endloop
  endfacet
  facet normal 0 0 1
    outer loop
      vertex 66.075 47.9 3
      vertex 51.075 50.9 3
      vertex 51.075 47.9 3
    endloop
  endfacet
  facet normal 0 0 1
    outer loop
      vertex 108.9 9.84999 3
      vertex 70.575 46.4 3
      vertex 107.3 8.25 3
    endloop
  endfacet
  facet normal -0 0 1
    outer loop
      vertex 46.575 46.4 3
      vertex 107.3 8.25 3
      vertex 70.575 46.4 3
    endloop
  endfacet
  facet normal 0 0 1
    outer loop
      vertex 46.575 46.4 3
      vertex 9.84999 8.25 3
      vertex 107.3 8.25 3
    endloop
  endfacet
  facet normal 0 0 1
    outer loop
      vertex 46.575 84.9 3
      vertex 8.25 85.3 3
      vertex 46.575 46.4 3
    endloop
  endfacet
  facet normal 0 0 1
    outer loop
      vertex 8.25 9.84999 3
      vertex 46.575 46.4 3
      vertex 8.25 85.3 3
    endloop
  endfacet
  facet normal 0 0 1
    outer loop
      vertex 46.575 46.4 3
      vertex 8.25 9.84999 3
      vertex 9.84999 8.25 3
    endloop
  endfacet
  facet normal -0 0 1
    outer loop
      vertex 66.075 81.9 3
      vertex 69.075 50.9 3
      vertex 69.075 81.9 3
    endloop
  endfacet
  facet normal 0 0 1
    outer loop
      vertex 69.075 50.9 3
      vertex 66.075 81.9 3
      vertex 66.075 50.9 3
    endloop
  endfacet
  facet normal -0 0 1
    outer loop
      vertex 48.075 81.9 3
      vertex 51.075 50.9 3
      vertex 51.075 81.9 3
    endloop
  endfacet
  facet normal 0 0 1
    outer loop
      vertex 51.075 50.9 3
      vertex 48.075 81.9 3
      vertex 48.075 50.9 3
    endloop
  endfacet
  facet normal 0 0 1
    outer loop
      vertex 52.575 86.9 3
      vertex 46.575 84.9 3
      vertex 51.075 84.9 3
    endloop
  endfacet
  facet normal -0 0 1
    outer loop
      vertex 8.25 85.3 3
      vertex 46.575 84.9 3
      vertex 9.84999 86.9 3
    endloop
  endfacet
  facet normal -0 0 1
    outer loop
      vertex 9.84999 86.9 3
      vertex 46.575 84.9 3
      vertex 52.575 86.9 3
    endloop
  endfacet
  facet normal 0.707109 -0.707105 0
    outer loop
      vertex 8.25 85.3 10
      vertex 9.84999 86.9 3
      vertex 9.84999 86.9 10
    endloop
  endfacet
  facet normal 0.707109 -0.707105 0
    outer loop
      vertex 9.84999 86.9 3
      vertex 8.25 85.3 10
      vertex 8.25 85.3 3
    endloop
  endfacet
  facet normal -0.707107 -0.707107 0
    outer loop
      vertex 108.9 85.3 3
      vertex 107.3 86.9 10
      vertex 107.3 86.9 3
    endloop
  endfacet
  facet normal -0.707107 -0.707107 0
    outer loop
      vertex 107.3 86.9 10
      vertex 108.9 85.3 3
      vertex 108.9 85.3 10
    endloop
  endfacet
  facet normal 0 1 -0
    outer loop
      vertex 107.3 8.25 3
      vertex 9.84999 8.25 10
      vertex 107.3 8.25 10
    endloop
  endfacet
  facet normal 0 1 0
    outer loop
      vertex 9.84999 8.25 10
      vertex 107.3 8.25 3
      vertex 9.84999 8.25 3
    endloop
  endfacet
  facet normal -1 0 0
    outer loop
      vertex 108.9 9.84999 3
      vertex 108.9 85.3 10
      vertex 108.9 85.3 3
    endloop
  endfacet
  facet normal -1 -0 0
    outer loop
      vertex 108.9 85.3 10
      vertex 108.9 9.84999 3
      vertex 108.9 9.84999 10
    endloop
  endfacet
  facet normal -1 0 0
    outer loop
      vertex 64.575 86.9 3
      vertex 64.575 88.9 10
      vertex 64.575 88.9 3
    endloop
  endfacet
  facet normal -1 -0 0
    outer loop
      vertex 64.575 88.9 10
      vertex 64.575 86.9 3
      vertex 64.575 86.9 10
    endloop
  endfacet
  facet normal 1 -0 0
    outer loop
      vertex 52.575 86.9 10
      vertex 52.575 88.9 3
      vertex 52.575 88.9 10
    endloop
  endfacet
  facet normal 1 0 0
    outer loop
      vertex 52.575 88.9 3
      vertex 52.575 86.9 10
      vertex 52.575 86.9 3
    endloop
  endfacet
  facet normal 1 -0 0
    outer loop
      vertex 51.075 47.9 4
      vertex 51.075 50.9 3
      vertex 51.075 50.9 4
    endloop
  endfacet
  facet normal 1 0 0
    outer loop
      vertex 51.075 50.9 3
      vertex 51.075 47.9 4
      vertex 51.075 47.9 3
    endloop
  endfacet
  facet normal -0 0 1
    outer loop
      vertex 48.075 50.9 4
      vertex 51.075 47.9 4
      vertex 51.075 50.9 4
    endloop
  endfacet
  facet normal 0 0 1
    outer loop
      vertex 51.075 47.9 4
      vertex 48.075 50.9 4
      vertex 48.075 47.9 4
    endloop
  endfacet
  facet normal 1 0 0
    outer loop
      vertex 48.075 84.9 5.5
      vertex 48.075 81.9 4
      vertex 48.075 84.9 4
    endloop
  endfacet
  facet normal 1 0 0
    outer loop
      vertex 48.075 81.9 4
      vertex 48.075 50.9 4
      vertex 48.075 81.9 3
    endloop
  endfacet
  facet normal 1 0 0
    outer loop
      vertex 48.075 84.9 5.5
      vertex 48.075 50.9 4
      vertex 48.075 81.9 4
    endloop
  endfacet
  facet normal 1 -0 0
    outer loop
      vertex 48.075 47.9 5.5
      vertex 48.075 50.9 4
      vertex 48.075 84.9 5.5
    endloop
  endfacet
  facet normal 1 0 0
    outer loop
      vertex 48.075 50.9 4
      vertex 48.075 47.9 5.5
      vertex 48.075 47.9 4
    endloop
  endfacet
  facet normal 1 0 0
    outer loop
      vertex 48.075 81.9 3
      vertex 48.075 50.9 4
      vertex 48.075 50.9 3
    endloop
  endfacet
  facet normal 0 1 -0
    outer loop
      vertex 51.075 50.9 3
      vertex 48.075 50.9 4
      vertex 51.075 50.9 4
    endloop
  endfacet
  facet normal 0 1 0
    outer loop
      vertex 48.075 50.9 4
      vertex 51.075 50.9 3
      vertex 48.075 50.9 3
    endloop
  endfacet
  facet normal 0 1 -0
    outer loop
      vertex 66.075 47.9 3
      vertex 51.075 47.9 4
      vertex 66.075 47.9 4
    endloop
  endfacet
  facet normal 0 1 0
    outer loop
      vertex 51.075 47.9 4
      vertex 66.075 47.9 3
      vertex 51.075 47.9 3
    endloop
  endfacet
  facet normal 0 1 0
    outer loop
      vertex 66.075 47.9 4
      vertex 69.075 47.9 5.5
      vertex 69.075 47.9 4
    endloop
  endfacet
  facet normal 0 1 0
    outer loop
      vertex 69.075 47.9 5.5
      vertex 66.075 47.9 4
      vertex 48.075 47.9 5.5
    endloop
  endfacet
  facet normal 0 1 -0
    outer loop
      vertex 51.075 47.9 4
      vertex 48.075 47.9 5.5
      vertex 66.075 47.9 4
    endloop
  endfacet
  facet normal 0 1 0
    outer loop
      vertex 48.075 47.9 5.5
      vertex 51.075 47.9 4
      vertex 48.075 47.9 4
    endloop
  endfacet
  facet normal 1 -0 0
    outer loop
      vertex 51.075 81.9 4
      vertex 51.075 84.9 3
      vertex 51.075 84.9 4
    endloop
  endfacet
  facet normal 1 0 0
    outer loop
      vertex 51.075 84.9 3
      vertex 51.075 81.9 4
      vertex 51.075 81.9 3
    endloop
  endfacet
  facet normal -0 0 1
    outer loop
      vertex 48.075 84.9 4
      vertex 51.075 81.9 4
      vertex 51.075 84.9 4
    endloop
  endfacet
  facet normal 0 0 1
    outer loop
      vertex 51.075 81.9 4
      vertex 48.075 84.9 4
      vertex 48.075 81.9 4
    endloop
  endfacet
  facet normal 0 1 0
    outer loop
      vertex 51.075 84.9 4
      vertex 51.075 84.9 3
      vertex 48.075 84.9 4
    endloop
  endfacet
  facet normal 0 1 -0
    outer loop
      vertex 48.075 84.9 4
      vertex 46.575 84.9 5.5
      vertex 48.075 84.9 5.5
    endloop
  endfacet
  facet normal 0 1 0
    outer loop
      vertex 48.075 84.9 4
      vertex 46.575 84.9 3
      vertex 46.575 84.9 5.5
    endloop
  endfacet
  facet normal 0 1 0
    outer loop
      vertex 46.575 84.9 3
      vertex 48.075 84.9 4
      vertex 51.075 84.9 3
    endloop
  endfacet
  facet normal 0 -1 0
    outer loop
      vertex 48.075 81.9 3
      vertex 51.075 81.9 4
      vertex 48.075 81.9 4
    endloop
  endfacet
  facet normal 0 -1 -0
    outer loop
      vertex 51.075 81.9 4
      vertex 48.075 81.9 3
      vertex 51.075 81.9 3
    endloop
  endfacet
  facet normal -1 0 0
    outer loop
      vertex 69.075 81.9 3
      vertex 69.075 50.9 3
      vertex 69.075 81.9 4
    endloop
  endfacet
  facet normal -1 0 0
    outer loop
      vertex 69.075 81.9 4
      vertex 69.075 84.9 5.5
      vertex 69.075 84.9 4
    endloop
  endfacet
  facet normal -1 0 0
    outer loop
      vertex 69.075 50.9 4
      vertex 69.075 81.9 4
      vertex 69.075 50.9 3
    endloop
  endfacet
  facet normal -1 0 0
    outer loop
      vertex 69.075 81.9 4
      vertex 69.075 50.9 4
      vertex 69.075 84.9 5.5
    endloop
  endfacet
  facet normal -1 0 0
    outer loop
      vertex 69.075 47.9 5.5
      vertex 69.075 50.9 4
      vertex 69.075 47.9 4
    endloop
  endfacet
  facet normal -1 0 0
    outer loop
      vertex 69.075 50.9 4
      vertex 69.075 47.9 5.5
      vertex 69.075 84.9 5.5
    endloop
  endfacet
  facet normal -0 0 1
    outer loop
      vertex 66.075 50.9 4
      vertex 69.075 47.9 4
      vertex 69.075 50.9 4
    endloop
  endfacet
  facet normal 0 0 1
    outer loop
      vertex 69.075 47.9 4
      vertex 66.075 50.9 4
      vertex 66.075 47.9 4
    endloop
  endfacet
  facet normal -1 0 0
    outer loop
      vertex 66.075 47.9 3
      vertex 66.075 50.9 4
      vertex 66.075 50.9 3
    endloop
  endfacet
  facet normal -1 -0 0
    outer loop
      vertex 66.075 50.9 4
      vertex 66.075 47.9 3
      vertex 66.075 47.9 4
    endloop
  endfacet
  facet normal 0 1 -0
    outer loop
      vertex 69.075 50.9 3
      vertex 66.075 50.9 4
      vertex 69.075 50.9 4
    endloop
  endfacet
  facet normal 0 1 0
    outer loop
      vertex 66.075 50.9 4
      vertex 69.075 50.9 3
      vertex 66.075 50.9 3
    endloop
  endfacet
  facet normal -0 0 1
    outer loop
      vertex 66.075 84.9 4
      vertex 69.075 81.9 4
      vertex 69.075 84.9 4
    endloop
  endfacet
  facet normal 0 0 1
    outer loop
      vertex 69.075 81.9 4
      vertex 66.075 84.9 4
      vertex 66.075 81.9 4
    endloop
  endfacet
  facet normal -1 0 0
    outer loop
      vertex 66.075 81.9 3
      vertex 66.075 84.9 4
      vertex 66.075 84.9 3
    endloop
  endfacet
  facet normal -1 -0 0
    outer loop
      vertex 66.075 84.9 4
      vertex 66.075 81.9 3
      vertex 66.075 81.9 4
    endloop
  endfacet
  facet normal 0 1 0
    outer loop
      vertex 70.575 84.9 5.5
      vertex 69.075 84.9 4
      vertex 69.075 84.9 5.5
    endloop
  endfacet
  facet normal 0 1 -0
    outer loop
      vertex 70.575 84.9 3
      vertex 69.075 84.9 4
      vertex 70.575 84.9 5.5
    endloop
  endfacet
  facet normal 0 1 0
    outer loop
      vertex 66.075 84.9 3
      vertex 69.075 84.9 4
      vertex 70.575 84.9 3
    endloop
  endfacet
  facet normal 0 1 0
    outer loop
      vertex 69.075 84.9 4
      vertex 66.075 84.9 3
      vertex 66.075 84.9 4
    endloop
  endfacet
  facet normal 0 -1 0
    outer loop
      vertex 66.075 81.9 3
      vertex 69.075 81.9 4
      vertex 66.075 81.9 4
    endloop
  endfacet
  facet normal 0 -1 -0
    outer loop
      vertex 69.075 81.9 4
      vertex 66.075 81.9 3
      vertex 69.075 81.9 3
    endloop
  endfacet
  facet normal 0 0 1
    outer loop
      vertex 48.075 84.9 5.5
      vertex 46.575 84.9 5.5
      vertex 48.075 47.9 5.5
    endloop
  endfacet
  facet normal 0 0 1
    outer loop
      vertex 69.075 47.9 5.5
      vertex 70.575 84.9 5.5
      vertex 69.075 84.9 5.5
    endloop
  endfacet
  facet normal 0 0 1
    outer loop
      vertex 70.575 84.9 5.5
      vertex 69.075 47.9 5.5
      vertex 70.575 46.4 5.5
    endloop
  endfacet
  facet normal -0 0 1
    outer loop
      vertex 48.075 47.9 5.5
      vertex 70.575 46.4 5.5
      vertex 69.075 47.9 5.5
    endloop
  endfacet
  facet normal 0 0 1
    outer loop
      vertex 48.075 47.9 5.5
      vertex 46.575 46.4 5.5
      vertex 70.575 46.4 5.5
    endloop
  endfacet
  facet normal 0 0 1
    outer loop
      vertex 46.575 46.4 5.5
      vertex 48.075 47.9 5.5
      vertex 46.575 84.9 5.5
    endloop
  endfacet
  facet normal -1 0 0
    outer loop
      vertex 46.575 46.4 3
      vertex 46.575 84.9 5.5
      vertex 46.575 84.9 3
    endloop
  endfacet
  facet normal -1 -0 0
    outer loop
      vertex 46.575 84.9 5.5
      vertex 46.575 46.4 3
      vertex 46.575 46.4 5.5
    endloop
  endfacet
  facet normal 1 -0 0
    outer loop
      vertex 70.575 46.4 5.5
      vertex 70.575 84.9 3
      vertex 70.575 84.9 5.5
    endloop
  endfacet
  facet normal 1 0 0
    outer loop
      vertex 70.575 84.9 3
      vertex 70.575 46.4 5.5
      vertex 70.575 46.4 3
    endloop
  endfacet
  facet normal 0 -1 0
    outer loop
      vertex 46.575 46.4 3
      vertex 70.575 46.4 5.5
      vertex 46.575 46.4 5.5
    endloop
  endfacet
  facet normal 0 -1 -0
    outer loop
      vertex 70.575 46.4 5.5
      vertex 46.575 46.4 3
      vertex 70.575 46.4 3
    endloop
  endfacet
endsolid OpenSCAD_Model
